<svg id="Layer_71" data-name="Layer 71" xmlns="http://www.w3.org/2000/svg" viewBox="0 0 411.75 411.75"><defs><style>.cls-1{fill:#cccbc9;}.cls-2{fill:#55bec0;}.cls-3{fill:#2f363e;}</style></defs><circle class="cls-1" cx="205.87" cy="205.87" r="205.87"/><path class="cls-2" d="M3319.42,3305a132.61,132.61,0,1,1-9.26-187.3,132.61,132.61,0,0,1,9.26,187.3" transform="translate(-3015.59 -3012.77)"/><path class="cls-3" d="M3180.59,3261.77c.22-1.17,1.54-6.2.58-6.94-1.81-1.39-2.61-2.88-5.78-2.79a41.17,41.17,0,0,1-6.57,0c2.08-4.17,1.33-7.66,3.82-11.71,2-3.21-6.18-1.76-7.23-1.44-1.85.55-1.42,1.43-1.7,3.14-.19,1.18-1.89,2.48-1.69,3.46a8.36,8.36,0,0,0-2.69,0c-1.36.13-2.7.26-3.61-.46-1.59-1.26-2.73.66-3.85-1.42-.69-1.28-.6-3.33-1.37-4.55-1.72-2.71-2.4-8.18-.56-10.9,1.61-2.39-1.05-4.86,1.5-6.83,1.13-.88,2.45-4.3,2.44-6.12,2.15-.16,6.21,2.18,8.08,2.31.52,1.22,3.39,2.53,3.6.63.67.54,1.31,1.56,2.33.84a1.35,1.35,0,0,0-1.06-1.27,2.28,2.28,0,0,0,.21-1.91c1.37-.79,2.72.37,3.6.42a3.92,3.92,0,0,1,2.81-.1c.72.17,2.43-.92,3.09-1.17-.24,1.65.6,2.81,1.54,2.12,1.64-1.21,2,.59,3.16,1.73,1.7,1.63-.49,5.26,2.77,7.13-.23,1.41,1.9,5.21,2.64,5.11,5.78-.72-2-13.73-1-17.19a6.37,6.37,0,0,1,3.56-4.48c1.72-.95-.13-4.87,1.6-5.45s4.54.32,6.26-.37c1-.39,1.6-1,.42-1.59a16.85,16.85,0,0,1,2.54-1.71c-.09-1.33-2.13-3.55-1.92-4.44.24.12.94-.41.87-.13.28.77,1.72-2,1.82-2.16,1-1.76-1.61-2.8-1.19-4.26.84.19,3.26,1,3.81-.34s-1-7.83-1.75-7.75c2.2-2.49,7.71,4.33,9.76,2.32,1.71.14,2.54.32,2.54-1.49-.69-.77-1.84,0-2.34-1.05.3-1.9,1.7-2.67,3.62-3.33.77-.3.85-1.48,1.24-2.2,1.14-.09,1.95-.82,3-1.24,2.95-1.16.9-.85,1.85-1.31.14,0,4.92-.42,4.66-.86.4.85-3.42,2-3.16,3.71.39,2.65,3.47-.67,5.09-1,1.45-3,5.13-1.41,8.24-2.06.28-.89-.82-.45-.64-1.27a3.17,3.17,0,0,0,3.12-1c.45-.63.22-1.26-1.21-1.08,0-.7-1.42-6.56-3.51-4-1.06,1.32.76,4,.75,5.45a7.36,7.36,0,0,0-2.73-.19,11.3,11.3,0,0,1-1.93,0c-.61-1-1-.89-2-1.29-.81-.33-1.65-2.62-2-2.51a9.93,9.93,0,0,0,1.05-1.92,19.06,19.06,0,0,0-3.23-.61c1.55.05,6-.92,3.77-2.9-1.59-1.43-4,.2-5.74.79a18.34,18.34,0,0,0-4.86,2.54c-.46.33-2.39.15-3.29.43,0-1.14,3.15-3.27,4.06-3.76,1.53-.84,2.56-.21,3.55-2a1.81,1.81,0,0,1,2.37-1.67c1.72-.09,4.39-1.11,6.29-1,3.29.22,5.86,1.57,8.72.71,1.4-.42,2.26-1.73,3.17-2.76,1.27,0,2.54-.09,3.81-.22,1.77-.12,3.17-1.67,2.64-3s.17-5.32-3.08-3.6c-.55-.12-.38-2-2.54-1.69a7.07,7.07,0,0,0,1.69-1.06c-.64-1.21-6.32-1.66-7.65-1.08-.29-.76.73-2.17-.82-3.37-.79-.59-3.24-.56-3-2.1,1.42,1.43,3.29-.92.21-1.9-.11-.63,2.18-.2-.11-1.59-.52-.32-2.23-1.4-1.91-2,.67-1.23-4.46-5.91-5.81-.79-.19.72-5.91,2.74-6.36,1.78-.71-1.53-1.09-.71-1.84-.47-.53.17-1.33-.24-2.2-.7-.26-.86,1.43-.56,1-2.77s-.65-1.31.36-2.85c.83-1.29-5.75-.24-5.16-2.42-1.69-1-3.41-2.7-5.4-2-1.64.6-2.9,1.83-4.65,1.36-1.26-.35-2.92-1.91-4-.75-.8.87-.86,2,.48,2.45a17.5,17.5,0,0,0-1.69,2.33,1.91,1.91,0,0,0,1.48.21,2.2,2.2,0,0,0,.43,1.91c-.31.49-.41,1.44-.95,1.65-.43,2-3.3,1.92-.44,3.43,2.14,1.14,5.74,3.59,4.45,6.23-.95,1.94-6.9,3.33-9.17,3.74-.25,2,1.08,2,1.11,3.9,0,1.06.67,2.27.6,3.31-.16,2.43-1.14,1.3-2.29,2.43s-2.15-1.15-3.31-1.69a3.26,3.26,0,0,1-2-3.79c.18-1.66.68-4.52-1.15-4.89-3.26-.65-7.28.44-10.16-1.64-1.44-1-2.44-2.92-4.43-3.28-1-.18-2.36,1-3.17,1.27s-1.71-.24-2.14.42c.61-.95-.28-4.77-2.4-4.68s-2.44-2.59-2-3.57c.58-1.19,4.39-2.45,4.54-3.61.06-.43,4-3.49,2.75-3.4,3.94-1.37,3.16-1.42-.43-2.33a3.84,3.84,0,0,1,2.57-1.06c1.78.11,3.61,1,2.72-.86,2.52.83,5.32-1,6.14-3.4-.58-.21-5.87-.25-5.51-1.26,2.13.72,4.31,1.39,6.22,0,1.61-1.2,2.73-1.64.76-2.31a17.28,17.28,0,0,1,5.93-.44,1.85,1.85,0,0,0-1.91-1.26c.93-.83,1.87.26,2.72.37a4.06,4.06,0,0,0,3.83-1.54c2.41-2.7-2.85-1.53-2-3.85.26-.27,1.36-.21,1.77-.06.58.2,1.16.4,1.32-.61.22-1.49-1.21-1.09-2.38-1.39-2-.49-8.19,1.24-4.25,2a4.94,4.94,0,0,1-1.9.85,9.42,9.42,0,0,1-1.76,2.53c-1.42,1.5-2.7,2-4,0,.21-.37,2.8-3.78-.33-2.67-1.24.44-2,1.78-3.06,2.46.56-.81-.69-1.86.42-2.33-.53-.53-1.27-.29-2-.05a3.16,3.16,0,0,1-1.2.27c-.12-1.22,1.36-.65,1.69-1.49-.72-1.08-2-.26-1.73-1.72s-2.82-.37-3.29-.18c-1.43.6-2.28,2-3.66,3a.88.88,0,0,0,.85.21c-.14.59-2,1.62,0,1.78a9.3,9.3,0,0,0,2.39-.25,10.75,10.75,0,0,1,2-.26c0,.39-2.82,1.38-3,1.48.05.61.51.46,1,.32a1.23,1.23,0,0,1,.72-.11c-.62,1.19-2.63,1.62-3.56,2.27-1.54,1.08-.11,1.07-.88,2.19-1.74.22-.65-1.2-.43-1.9-1.1-.35-4.29-.27-4,1.49-1.19.56-6.2,3-7.4,2.34-2.64-1.41-6.07,2.29-7.65,4.14a.24.24,0,0,0,0-.09c-3.47-.14-5.27,2.88-8.46,3.41.62-.58,1.25-1.14,1.9-1.7-1.3-.95-6.94,3.91-7.83,4.9-4,4.44-1.25-.79-5.51-1.26-.57.53.88,1,.64,1.69a16.6,16.6,0,0,0-3.39,1.28,17.45,17.45,0,0,0-3.73,1.61c-.31.37-.59.71-.88,1.09l-.16.2a131.82,131.82,0,0,0-14.43,22.55c1.74,0,3.59.08,4,.44-.72,2,4.56,1.43,4.43,2.68.54-.24-.33,2.46-.3,2.39a17.8,17.8,0,0,0-.73,2.76c1.08-.4.25-2.09,1.27-2.54a23.68,23.68,0,0,1-.18,3.7c.29,1.6-1.27,6.1-.76,6.79.38.5,2,2.5,1.61,3.07-.67.92-.12,4.18-.35,5.43-.33,1.79-.75,3.56-.9,5.37-.49,2.77-1.1,5.86-.71,8.68.5,3.52,1.68,6.69,2.65,10.14.67,2.39,1.86.87,2.79,2.9,1.11,2.41,1.78,5.76,3,8.36.47,1,3.78,5.55,1.08,5.08-.19,2.83,4,2.91,4.25,5.5.34,3,2.77,3.93,3.62,6.77,2.32.09-.23-3.23-.22-3.81-1.39-.08-2.14-3.89-2.35-5.51-1.36-.58-2-3.51-2.73-4.74-1.27-2.19-2.37-4.06-2.17-6.69,2.77.74,3.39,3.3,4.34,6,.43,1.22,1.14,3.41,1.83,4.12,1.63,1.25,1.7,2.12,1.92,3.81,3.09,1.74,5.07,6.53,6.55,9.55.86,1.76-.46,2.84.56,4.5s2.8,2.22,3.52,3.93c3.11.92,6,3.1,8.74,4.62a17.33,17.33,0,0,0,4.84,2.34c1.44.3,2.48-1,3.85-1,2.68,0,5.15,4.4,7.18,5.83.91,0,8,3,8.06,1.89.34,0,3.64,5.17,4.67,5.71.29,1.2-.88,1.38.55,2.42a5.45,5.45,0,0,0,.73.48c1.42-.62,2.9-1.15,4.38-1.78a4.63,4.63,0,0,1-1.12-3.68" transform="translate(-3015.59 -3012.77)"/><path class="cls-3" d="M3282.37,3306.16c-.66-2.41-4.71-.2-6.34-1.33-1.4-1-2.92-2.74-4.8-2.58-2.33.19-4-.37-6.31-.81-1.62-.31-2.18,1.68-3.59,1.67.32-2.2-2.09-3-4.69-2.59-.83-1.18-2.52-1-3.95-.14a4.51,4.51,0,0,0,.37-1.28c-1.16-1-2.34.13-3.67,0-1.16,1.05-2.29,2.24-4.38,2.35.87-2.48,3.49-3.12,4.79-5.21.67-1.08-1.74-2.34-2.09-3.3-1.18-3.2-.94-2.77-3.66-4.64a13.28,13.28,0,0,0-6.35-2.14c-2-.15-2.15.76-4,.09a14.27,14.27,0,0,0-5.3-1.09c.69-3.73-3.73-4.5-5.93-4.21a7.37,7.37,0,0,1,1.69-1.7,3,3,0,0,0-1.7-1.05c1-.21.53-1.92.84-2.55-1.81-.28-2.71,2.59-3.81,1.28.32-.42,1.37,0,1.27-.85-1.59-1-4.57-.45-6,.55-1.95,1.37-3.73-1.08-5.78-.85-1.7.18-2.37.6-3.25-.84a2.84,2.84,0,0,0-3-1.14c-.56-.44-.73-2.5-1.86-1.74-.65.44-.73,1.49.37,1.53-.9.85-2.58.43-3.39,1.28-.4-.06-1-1.39-.18-1.6,3.43-.87-1.19-1.88-1.87-3a4.09,4.09,0,0,0-1.92-1.71c-2.68-1.18-6.65.15-9.18.43-.79-1.1-2.09-2.24-3-3.52-1.48.63-3,1.16-4.38,1.78.61.36,1.33.65,1.06-.15.81,1.88,2.55.55,2.55,3,.31.74,2.31,1.08,2.76,1.05a3.43,3.43,0,0,1,1.4.22,9,9,0,0,1,2.15,1.31c1.11.83,1.05.61,2.81.57a9.42,9.42,0,0,0-.85-2.11c1.81,0,1.8-1.06,3.81-.65-.08.79,1.27,2.63.86,3.18-1.71.46-3.68-.09-4.89,1.33-.52.61-.5,2.88-1.3,3a2.63,2.63,0,0,0-2.06,2.29,2.1,2.1,0,0,0-1.28-.85c-.76.6,1.1,1.15.43,1.69a1.78,1.78,0,0,0-1.27,1.07c-.1,1.17,1.38,2.19,1.49,3.38s.73,4.34.17,5.34c-.28.51-3.19,2.2-2.27,2.3-1.41.1-.35,1.55-1.93,1.63-1.14-.26-1.51.23-1.13,1.49-.21,1-2.86,4.59-.73,5.36a6.28,6.28,0,0,0,2.12.07c0,1.9-2.17,1.59-3,2.9-.15,1.28,2.58,2.75.64,2.75.53,1,1.82,1.26,2.76,1.69a15.35,15.35,0,0,0,2,2.72c1.51,1.7,3.14,3.33,3.93,5.53,2.2,1.58,2.88,4.17,4.75,5.76a20.11,20.11,0,0,0,5.77,3.19,40.34,40.34,0,0,1,6.25,3.09c.36,1,1.52,4.58.65,5.51-.31.34-.55,7-.19,7-.21,1.56-1.66-.83-.31,1.7a.94.94,0,0,1,.25,1.06c0,.14-1.21,2.27-2.26,1.69a1.5,1.5,0,0,0,.8.92,133.87,133.87,0,0,0,28.71.77c-.78-.34-.85-1.07-2.18-.9,3.48-.6,6.49,1.15,9.77-.54.75-.39,1.91-1.81,2.86-2.37l-.13.12c1.9.09,6.33-3.41,6.48-5,.38-3.87,6.16-4.38,7.87-7.05,4.09-.51,6.07.9,8.87-1.55,2.29-2,2.94-4.08,4.45-6.25,1-1.42-1.58-4.73-.72-6.36,1.92-.52,5-.84,5.82-2.51C3278.74,3313.9,3283.48,3310.21,3282.37,3306.16Z" transform="translate(-3015.59 -3012.77)"/><path class="cls-3" d="M3129.32,3124.15c2,.24,1.84,1.07,3.17,2.34.25-.52,4.82-5.68,5.29-5.1a3.57,3.57,0,0,0-1.06,1.06.59.59,0,0,1,.64,0,4,4,0,0,0-1.48,1.7,12.44,12.44,0,0,0,4.31-1.33,27.17,27.17,0,0,0,5.42-3.57c1.37.23,2.73-1.72,4.42-1.84a7.42,7.42,0,0,0,5.32-2.63c-.73-.74-1.68.92-2.12.43,1-.9,4.44-1.15,4-2.55-1.45-.48-2.88.85-4.24,0,1-.82.49-1.73.42-2.76-2.63-.19-3.21,1.82-4.23,3.61-.78,0-.1-1.06-.42-1.06-1.43.21-2.07,1.52-3.18,2.34,0,.19-5,2.45-6.6,2.26-1.95-.22-2.07-1.3-4.16-1.07l-1,.11c-.89.79-1.77,1.58-2.64,2.39a1.81,1.81,0,0,1-.36,1c-1.09,1.72-1.18,1-1.31,3C3129.3,3123.18,3127.22,3123.9,3129.32,3124.15Z" transform="translate(-3015.59 -3012.77)"/><path class="cls-3" d="M3123.11,3126.63c-.44.48-1,1.09-1.47,1.64a11.51,11.51,0,0,0,2.65-1.27C3124.1,3126.68,3123.66,3126.58,3123.11,3126.63Z" transform="translate(-3015.59 -3012.77)"/><path class="cls-3" d="M3347.06,3178.94a7.07,7.07,0,0,0-.65-3.6A3.06,3.06,0,0,0,3347.06,3178.94Z" transform="translate(-3015.59 -3012.77)"/><path class="cls-3" d="M3325.14,3142.13c-.27-.32,0-1.66.42-1.06-1.6,1.65,3.8,4.26,3.62,6.34a1.5,1.5,0,0,0-1.48,0c.27.57.55,1.14.85,1.69a3.78,3.78,0,0,1-1.06.22c.14,1.76,2.26,1.46,3,2.74a5.3,5.3,0,0,1-1.49-.63c-1.06,3.91-1.25.91,1.7,3a.86.86,0,0,1,.21-.84c1.59.6,2.51,1.39,4.46,1.68a14.3,14.3,0,0,0-.22-3c-.7-1.71-2.59-3.67-3.66-5.28-1.18-1.77-2.59-3.44-3.78-5.08-.25-3.24-1.43-2.08-2.77-4.44a.89.89,0,0,0,.85-.64c-.9-.6-1.82-1.16-2.76-1.69a2.66,2.66,0,0,0,.43,1.48,1.56,1.56,0,0,1-.43-.21C3323.12,3137.46,3324,3141.91,3325.14,3142.13Z" transform="translate(-3015.59 -3012.77)"/><path class="cls-3" d="M3352.68,3197.82c-.75-1.49-1.59-2.75-2.29-2.88-1.62-.31,1.14-7.65-2-8-.88.77-2.86-.13-4-.4a4.19,4.19,0,0,0-4.3,1.27c.17.52-5.21,1.48-6.39-.89-.72-1.47,2.17-1.38,2.75-1.33,2.43.16,2.05-1.94,3.12-3.46.69-1,0-1.32-.56-2.37a17.47,17.47,0,0,0,1-3c3.38.39.44-3.35,1.9-4.24a8.64,8.64,0,0,0,2.33,1.69,4.19,4.19,0,0,1,1.27-1.7c1.65,2.22,2.14,5,3.41,7.41l.06.11a132.25,132.25,0,0,0-11-27.24,2.75,2.75,0,0,0-.82,2.37c-1.63-.8-1.33,1.24-2.13,1.78s-1,.11-1.33-.33a1,1,0,0,0-1-.6,8,8,0,0,1,.65,2.33c-1.46-1.14-1.75-.92-3.61-1.26-.24,1.89,3.79,4.94,5,6.63.75,1.1,1.87,5.11,1,6.49-2-1.46-8.1-3.73-9.76-2.09-.24,1,1.18,4.95,1.42,6.16a14.15,14.15,0,0,1-.54,5.07c3,1.68-.79,5.17,4.25,4.22,2.14,2.56,2.06,5.9-.54,7.79-2.29,1.66-1.31,2.82-2.62,4.56s.94,3.88-.94,6.07c-1.29,1.5-3.25,2.2-3.82,3.93-.84,2.5-3.21,3.5-3.24,6.5-2.34,1.1-1.77,3.09-3.38,4.67-1.25,1.22-.2,3.1-.42,4.66a.88.88,0,0,1,.85.21c.51.85.76,4.83.68,5.77-.13,1.5-.47,5.2-1.41,6.35-1.82,2.23.29,2.89-.25,4.94-.42,1.63.42,3.91,2.52,3.49-1.24,2.49,3.63,4.08,3,7.41.68,2,4.15,4.19,5.91,5.74s3.22.54,4.62-.55,2.64-2,4.45-.87c.67.43,6.4-4.4,7.48-5,.82.83.54,2.37.86,3.39a4.06,4.06,0,0,0,2.32-1.49c.73,4.07-2.22,7.37-1.93,11.2a2.68,2.68,0,0,1,0,.4,132.94,132.94,0,0,0,7.36-65" transform="translate(-3015.59 -3012.77)"/><path class="cls-3" d="M3320.07,3146.59c2.14,3.51,8.38,2.94,5.08-1.71,1.72-.12-2.13-4.46-3.19-4.23a3.57,3.57,0,0,0-1.06,1.06.86.86,0,0,1,.85.64c-.76,0-1.27-.59-2.12-.63-.55,1,3,5.29.44,4.87" transform="translate(-3015.59 -3012.77)"/><path class="cls-3" d="M3230.88,3083.52a22,22,0,0,1-3.56.12c-2.14,0-4.31-.08-6.14.89a5.48,5.48,0,0,1,2.75.63,5.25,5.25,0,0,1-.94,0c-.84-.07-1.87-.14-2.24.46a1.86,1.86,0,0,0,1.06.08c.22-.07,1.92,1.15,1.68,1.84,5.51.73,9.27-2.12,14,1.43,0,.26-2.17,1.76-1.8,2,1.6-.34,2-.58,3.29-.3a2.53,2.53,0,0,0-.85.43,3.88,3.88,0,0,1,2.12.84c-.05,0-2.18,0-1.9.22a1,1,0,0,1,1.06.21,1.53,1.53,0,0,0-1.06.64.6.6,0,0,1,.64.21,6.26,6.26,0,0,0-1,0c-1,.47,2.69.74,4.19.61.09-.22.28-.3.59-.22.09.11-.16.18-.59.22a.6.6,0,0,0,0,.21c1.45.49,3.88.35,4.66,1.47-.51-.1-.39.08-.26.26s.35.52-1.33,0c-1.41-.46-3.83-1.32-5.19-.23a1.26,1.26,0,0,1,.85.64c-1.34-.21-2.17,2.89-2.12,2.94,1,1,6.31.44,7.21-1.47a13.5,13.5,0,0,0-1.91-.84c1,.16,2,.37,3,.62a.62.62,0,0,0-.64.22c.07.44.45.39.79.34s.45-.07.48.08c.73,2.63-3.51,1.91-4.86,2.77,1.13.21-.74.94-.91,1.5-.42.75-.24,1,.53.88-.22.13-.45.26-.67.37.78.87,2.5.12,3.18.84-3.79,0-1.4,2.19,1.62,2.65,0,1.61-.86,2.1.72,2.43-1.32,0-1.05.72-.45,1.47a10.21,10.21,0,0,0,1.46,1.47c.35,1.07,0,.53,1,1.3.37.27,2,.25,2.2.62a9.33,9.33,0,0,0-.06,4c1.7.54,2.81-1.22,3.56,0a2.58,2.58,0,0,0,1.1.69l.07-.07c0,.05,0,.06-.07.07-1.4,1.33,2.69,1.33,3.25,1.4a.91.91,0,0,0,.93.92c.8,0,.77.28-.07.77a13.67,13.67,0,0,0,4.45-.43.58.58,0,0,0-.22.85c1.37.32,1.05-1,1.27-1.07s2.29.19,2.34.42a2.11,2.11,0,0,0-1.27,1.07c1.06.18,2.12.4,3.18.62-1.31,1.51.55.83,1.91,1.48a4.56,4.56,0,0,1,2.08-.24,4.78,4.78,0,0,0,1.94-.19c.4-1.29-.05-1.07-.31-.87s-.17.14,0,0,.45-.48.94-1c-.37-1.06-1.35-.5-.64-2.63.81-2.4-.77-1.82-1.7-3.72a3.42,3.42,0,0,0,1.27-.21,1,1,0,0,0-.64-1.06c1.08-.17,2.15.12,2.75-1.7a10.46,10.46,0,0,1-2.12-1.48,2,2,0,0,0,1.48-.22,11.57,11.57,0,0,0-1.49-1.48,2.39,2.39,0,0,0,1.49-.21,1.64,1.64,0,0,0-.85-1.27c2.76.95,4.66,2.46,7.23,2.4a40.14,40.14,0,0,1-.25-4.12,3,3,0,0,0,1.91.63c.41-1.38-.69-2.74.63-3.81.92.35,2.33,1,3.3.43a13.38,13.38,0,0,0,3.08-.71,132.07,132.07,0,0,0-61.14-20.07" transform="translate(-3015.59 -3012.77)"/><path class="cls-3" d="M3350.64,3186.5c-.09-.1-.2-.13-.39.06a4.82,4.82,0,0,0,.94,2.5C3351,3188.21,3350.83,3187.35,3350.64,3186.5Z" transform="translate(-3015.59 -3012.77)"/><path class="cls-3" d="M3348.13,3183.6c-.14-2.31-.41-3.36-1.71-4.44.37,1.5.35,3.34,1.29,4.66C3347.7,3183.43,3347.84,3183.36,3348.13,3183.6Z" transform="translate(-3015.59 -3012.77)"/><path class="cls-3" d="M3193.83,3087.76a14.27,14.27,0,0,1,3.83-.63c-1,.24-2.4.4-3.83.63-.8.21-1.61.42-2.42.55a4.8,4.8,0,0,0-1.72.89c.27-.17.17.46-.07.66.47-.07,1.4-.17.63-.59.72-.21,4.1-.53,4.66,0-1.07,0-7.45.52-7.62,2.13,1.2-.08,4.4-1,5.3-.22-1.15.39-11.31,1-10.8,3.84,1.73,0,4-1.09,5.83-1.37a48.57,48.57,0,0,0,6.15-1.45c2.21-.66,7.06.46,8.56-2.1-2.22-.08-4.83,1-7,.44,1.76-.48,3.62-.24,5.38-.71,1.31-.35,1.42-1.05,2.72-1.18,1.12-.1,4.49-1,5-2.17-1.22-.18-2.66.59-3.82.22,2.18-.75,4.67-.09,6.78-1.08a1.4,1.4,0,0,1-1.27-.2c1.38.1,9.49-1.73,13.53-2.17a2.67,2.67,0,0,1-.71,0c-3.8-.05-7.61.07-11.41.35-3.46.47-6.9,1.14-10.3,1.93s-8,1-10.81,3c.32,0,.64-.06.95-.11A16.85,16.85,0,0,1,3193.83,3087.76Z" transform="translate(-3015.59 -3012.77)"/><path class="cls-3" d="M3189.19,3088.85a1.61,1.61,0,0,0,.64-.43C3189.54,3088.39,3188.66,3088.76,3189.19,3088.85Z" transform="translate(-3015.59 -3012.77)"/><path class="cls-3" d="M3150.69,3107.88c7.4-2.9,10.23-5.53,7.62-5.32C3156.35,3102.72,3151.68,3106.06,3150.69,3107.88Z" transform="translate(-3015.59 -3012.77)"/><path class="cls-3" d="M3176.74,3093.88c.19,0,.35-.12.47-.12h0c.13,0,.22,0,.28-.13a26.53,26.53,0,0,1,6.2-1.21c1.38-1.15,3.66-1.88,5.21-2.56a1.65,1.65,0,0,1-1.19-.39,1,1,0,0,1,.26-.25c-.21.08-.48.17-.8.26a20.11,20.11,0,0,0-2.32.65h.11s-.23.2-.18.19l.3-.19c.26,0-.8.32-.44.31-.36,0,.7-.31.44-.31-4,1.22-10.13,3.07-9.86,4.44A9.77,9.77,0,0,1,3176.74,3093.88Z" transform="translate(-3015.59 -3012.77)"/><path class="cls-3" d="M3304.74,3115.69c-.1-.79-2.15-2.37-2.84-2.78-.48-.28-.5-.12-.59,0s-.31.37-1.52-.21c-.5-.24-4.1-1.49-4.17-1.26a.6.6,0,0,1,.21.85c0-.4-3.32-2.76-4.46-3-.25.49.81.7.43.85-.74-.28-2-.89-2.12.22.73,1.52,3.49.19,4,1.9a2.18,2.18,0,0,1-1-.13c-.66-.16-1.38-.33-1.56.34,1.09.68,2.82.54,3.61,1.69-.64-.19-1,0-1.06.64,1.24.37,13.32,5,13.14,2.72a9.61,9.61,0,0,0-.57-1,1.86,1.86,0,0,0-1.55-.95" transform="translate(-3015.59 -3012.77)"/><path class="cls-3" d="M3202.91,3243.07c0-2-2.19-2-3.6-1.9-.08-.5.66-.62.21-1.06a19.59,19.59,0,0,0-4.46-1.26,3.36,3.36,0,0,0-2.48-1.79c-1.82-.53-3.42-2.13-5.13-2.09-2.29,0-4.08-1-6.59-.32-1.14.3-4.4,2-3.39,3.82,1.2.27,4.69-1.89,5.93-2.55.35,2,2.88,1.57,4.88,2.53,1.7.81,3,0,3.75,1.65.65,1.46,2,1,3.25,1.72-.43.74-1.45.55-1.27,1.7C3197,3243.05,3200,3243.48,3202.91,3243.07Z" transform="translate(-3015.59 -3012.77)"/><path class="cls-3" d="M3193.85,3248.14c.2.11,4.23.94,4-.18C3196.78,3246,3190.13,3246,3193.85,3248.14Z" transform="translate(-3015.59 -3012.77)"/><path class="cls-3" d="M3205.54,3247.79a6.55,6.55,0,0,0,2.68.14,2.44,2.44,0,0,0,1.91,1.27c.48-4.1,7.33.48,7.41-2.56-1.7-2-5.28-3.61-7.5-3.4-1.19.12-5.48-1-5.85.46,0,0,2.71,2.82,2.55,2.75-1.62.71-3.08-.9-4.67-.2C3201.72,3248.72,3204.46,3247.6,3205.54,3247.79Z" transform="translate(-3015.59 -3012.77)"/><path class="cls-3" d="M3220,3247.53c.09,2.08,4.63,1,4.32-.27C3223.79,3247.21,3219.92,3245.46,3220,3247.53Z" transform="translate(-3015.59 -3012.77)"/><path class="cls-3" d="M3162,3103.1c2.53,2.11,4.34-1.34,5.08-1.3C3166.34,3101.65,3159.92,3101.39,3162,3103.1Z" transform="translate(-3015.59 -3012.77)"/><path class="cls-3" d="M3143.56,3112c-.84,0-3.1-.43-3.15,1.06,1.55,1.3,7-.53,6.56-2.77a2.82,2.82,0,0,1-1.7-.84,5.55,5.55,0,0,0-3.17.86C3141.59,3110.32,3143.35,3111.86,3143.56,3112Z" transform="translate(-3015.59 -3012.77)"/><path class="cls-3" d="M3175.65,3099.05c4.06-.45,7.78-2.59,11.78-2.64,1.18,0,3-.29,3.68-1.42.91,1.21,2.78.38,3.88.14,1.52-.35,2-1,3.54-1.86-3.62-1.05-7.94.16-11.35,1.45-1.56.59-2.53.42-4.1,1-1,.39-3.75,0-4.47.74.49-.86,1.75-.53,2.33-1.28a16,16,0,0,0-5.5,1.5c-.06.91.81.19.85.63C3175.82,3098.12,3175.36,3098,3175.65,3099.05Z" transform="translate(-3015.59 -3012.77)"/><path class="cls-3" d="M3204.7,3107.67c-2.23-.74-5.08-.14-5.07,2.55C3201.63,3111,3205,3110.41,3204.7,3107.67Z" transform="translate(-3015.59 -3012.77)"/><path class="cls-3" d="M3219.58,3101.89c-.94.15-2.06.67-3,.45a9.72,9.72,0,0,0,2.33-.85c-.23-1-1.82-.87-3.33-.77-1.35.1-3.5,1.25-3.69.57,1.24-.05-1.82-3.42-2.95-1.05-.16-1.3-1.09-1-2-.79a2.48,2.48,0,0,1-1.38.16,4.25,4.25,0,0,0,1.91-1.06c-1.48-1.05-9.26-2-9.32,1.08a1.9,1.9,0,0,0-2.2-.09,1.8,1.8,0,0,1-1.83.1,8.09,8.09,0,0,0,1.48-1.91c-2.27-2.17-6.3-.29-8.47,1.08a1,1,0,0,1,1.06.21c-.95,0-2.55,0-2.76,1.28a1.85,1.85,0,0,1,.85.63,1.16,1.16,0,0,0-1.27.85c.28.69,1.54,0,1.7.85a2.3,2.3,0,0,1-2.33.64,1.54,1.54,0,0,0,1.27-.64c-.66-1.09-2-1.15-2.12-2.33,1-1.14,2.63-1.36,3.59-2.55-2.65.33-10.19,2.27-9.09,5.32a1.6,1.6,0,0,0-1.49,1.28,8.43,8.43,0,0,0,1.67-.1,5.33,5.33,0,0,1,2.57.09c-.8.67-2.85,0-3.17,1.27.84,1,2.58.5,3.57.19,1.17-.37,1.13-.2,1.36,0s.58.28,2,.11a59.18,59.18,0,0,1,8.76-.53c.19-1.22.84-1,1.71-.8a3.24,3.24,0,0,0,2,0c2.23-.89-.43-1.19-.56-1.52.92-.6,6.15,1.9,7,2.31a5,5,0,0,1-2.33.43c-.31,1.87,2,.73,2.88.47,1.91-.56,1.61.58,3.38,1,4.69,1,.81,4.68-2,5.34,0,.77,1.84,1.29,1.49,1.9-2.48.23-4.26.61-6.64.69-1.12,0-3.65,1.18-3.31,2.94,1.46.09,7.35-.91,7.43-2.07,0-.66,6.39,2.82,7.19,3.52a.91.91,0,0,0-.84.85c1.79,1.39,4.53,1.14,5.94,3.19,2.53-.3,4.95.41,7.42.59,0-3.35-2.37-3.4-6.75-4.36,2.71.59,6.49-.14,6.95.16,1.24.79,1.13,2.27,2.55,2.28a7.25,7.25,0,0,0,0-2.33,1.28,1.28,0,0,0,.85.21c.39-2-1.19-1.94-2.13-3.17.4.1.61,0,.64-.42-1.09,0-7-3.55-6.58-4a1.94,1.94,0,0,0,1.91.42c.21-1.07-.94-.66-1.07-1.49,2-.75,4.5-1,6.14.31,1.32,1,1.8,3.54,3.41,3.49.22-.64-.82-1.42-.22-1.91a27.59,27.59,0,0,1,3-.43c.66-.39-.71-.72,0-1.06,1.55.15,2.82-1.05.69-1.79-1.75-.61-2,.13-2.82-1-1,0-2.43.64-3.39,0a1.23,1.23,0,0,0,1.48-.43c-1.52-2.38-7.25-1.67-9.75-3.16a1,1,0,0,1,1.06-.21c.22-.55-1.09-.78-.64-1.06a7.23,7.23,0,0,0,3.39.42c.14-1-.64-1-1.46-1-.64,0-1.29,0-1.51-.48,4.16,0,1.29-1.51-.16-1.29" transform="translate(-3015.59 -3012.77)"/><path class="cls-3" d="M3185,3121.29c.88,0,6.65,3.31,6.57,0a6.87,6.87,0,0,0-3.39-.42c.6-2-2.39-.65-3.74-1.2-3-1.22-.28-.88-2.41-1.11a1.25,1.25,0,0,0-1.07-1.48c-.58,1.15-1.6,2-2,3.27-.63,2.22-1.53,1.53-2.47,3.52,1.16.16,2.33-.9,3.39-.65a2.32,2.32,0,0,0,0,1.28c1.83-.08,2.86-1.78,4.66-1.92C3185.08,3122.18,3184.25,3121.4,3185,3121.29Z" transform="translate(-3015.59 -3012.77)"/><path class="cls-3" d="M3196,3114.44c-.78-.24-2.13.68-2.75.22a6.87,6.87,0,0,0,2.75-1.91,12.51,12.51,0,0,0-6.35,2.77.88.88,0,0,1,.85.21,12.51,12.51,0,0,0-4.23,2.34C3188.08,3119.19,3196.12,3118,3196,3114.44Z" transform="translate(-3015.59 -3012.77)"/><path class="cls-3" d="M3170.14,3097.16a10.37,10.37,0,0,0,4.66-1.92A12.75,12.75,0,0,0,3170.14,3097.16Z" transform="translate(-3015.59 -3012.77)"/><path class="cls-3" d="M3165.3,3112.42c-.74.07-2.6-1-3.6-1.05-.66.63-2.7,2.23-3,3C3161.11,3114.06,3163.71,3114.73,3165.3,3112.42Z" transform="translate(-3015.59 -3012.77)"/><path class="cls-3" d="M3188,3089.23c.22-.08.38-.14.48-.19A1.08,1.08,0,0,0,3188,3089.23Z" transform="translate(-3015.59 -3012.77)"/><path class="cls-3" d="M3170.06,3099.8c1.15.68,4.89-1.5,4.45-1.7C3173.1,3098.8,3171.3,3098.72,3170.06,3099.8Z" transform="translate(-3015.59 -3012.77)"/><path class="cls-3" d="M3168.61,3103.56c1.5.81,3.07-.27,7.19-3.87C3177.54,3098.17,3171,3101.38,3168.61,3103.56Z" transform="translate(-3015.59 -3012.77)"/><path class="cls-3" d="M3168.45,3098c-.58-.21-5.09.55-5.16,1.07C3164.54,3098.9,3168.09,3100.09,3168.45,3098Z" transform="translate(-3015.59 -3012.77)"/><path class="cls-3" d="M3157.78,3109a2.76,2.76,0,0,0-.85.85c1.79-.18,5-1.58,5.29-3.61C3159.47,3105.89,3156.7,3108.88,3157.78,3109Z" transform="translate(-3015.59 -3012.77)"/><path class="cls-3" d="M3248.49,3155.35a4.32,4.32,0,0,0-.74.07c-1.6.33-2.51,1.73-3.22,3.24s-1.2,3.11-2,3.9a1.29,1.29,0,0,1-.21.19,1.13,1.13,0,0,0-.21,1.73,2.33,2.33,0,0,0-1.79,1.19,1.14,1.14,0,0,0-.1.62c.08.54.69.74,1.41.81.24,0,.49,0,.74,0l.69,0,.61,0h.8l1.84,0,2.21,0c.51,0,1,0,1.34,0s.71.06.73.14l-.32.14a4.89,4.89,0,0,0-1.79,1.56,2.15,2.15,0,0,0,1,.25,2.9,2.9,0,0,0,1.79-.89l.15-.13a2.6,2.6,0,0,1,1.59-.77,1.61,1.61,0,0,1,.37,0c-.18,1.81-.58,1.76,1.52,2.44a2.44,2.44,0,0,0,.71.13c.81,0,.85-.76,1.12-1.7.57-2-2.06-1.68-2.51-2.14-.06-.59.31-.78.7-.94s1-.36.78-1.19a.87.87,0,0,0-.46-.13,1.48,1.48,0,0,0-.61.18,1.68,1.68,0,0,1-.67.19l-.17,0c0-1,1.64-2.27-.3-2.71a3.87,3.87,0,0,0-.86-.09,5.31,5.31,0,0,0-1,.11,5.79,5.79,0,0,1-.91.11,2.59,2.59,0,0,1-1.79-.8c2.43-.71-.61-.86-1.61-.86H3247c.58-.83,1.95-2.4,2.6-3.55a2.41,2.41,0,0,0,.35-.9,5.27,5.27,0,0,0-1.44-.21" transform="translate(-3015.59 -3012.77)"/></svg>