<svg id="Layer_7" data-name="Layer 7" xmlns="http://www.w3.org/2000/svg" viewBox="0 0 411.75 411.75"><defs><style>.cls-1{fill:#fdba14;}.cls-2{fill:#313d4d;}.cls-3{fill:#1a364d;}.cls-4{fill:#0cb8a8;}.cls-5{fill:#e61c29;}</style></defs><circle class="cls-1" cx="1775.46" cy="329.79" r="205.87" transform="translate(-1282.76 1228.11) rotate(-45)"/><path class="cls-2" d="M1775.51,191.84c-1.76-5-19.68-2.05-20.68,3.59l20.78,63.63Z" transform="translate(-1569.59 -123.92)"/><path class="cls-2" d="M1775.7,326.28c1.76,5,19.69,2,20.68-3.6l-20.77-63.62Z" transform="translate(-1569.59 -123.92)"/><path class="cls-2" d="M1746.35,198.53c-3.74-3.71-18.62,6.7-17.07,12.22l46.33,48.31Z" transform="translate(-1569.59 -123.92)"/><path class="cls-2" d="M1804.86,319.58c3.74,3.72,18.62-6.7,17.07-12.21l-46.32-48.31Z" transform="translate(-1569.59 -123.92)"/><path class="cls-2" d="M1723,217.22c-5-1.73-13.87,14.11-10.08,18.41l62.7,23.43Z" transform="translate(-1569.59 -123.92)"/><path class="cls-2" d="M1828.22,300.89c5,1.73,13.87-14.11,10.08-18.41l-62.69-23.42Z" transform="translate(-1569.59 -123.92)"/><path class="cls-2" d="M1710.05,244.19c-5.24.61-6.38,18.74-1.1,21l66.66-6.09Z" transform="translate(-1569.59 -123.92)"/><path class="cls-2" d="M1841.16,273.92c5.25-.61,6.38-18.73,1.1-21l-66.65,6.1Z" transform="translate(-1569.59 -123.92)"/><path class="cls-2" d="M1710.09,274.11c-4.46,2.82,2.39,19.64,8.11,19.36l57.41-34.41Z" transform="translate(-1569.59 -123.92)"/><path class="cls-2" d="M1841.12,244c4.46-2.82-2.38-19.64-8.11-19.35l-57.4,34.41Z" transform="translate(-1569.59 -123.92)"/><path class="cls-2" d="M1723.11,301.05c-2.79,4.47,10.67,16.66,15.7,13.92l36.79-55.91Z" transform="translate(-1569.59 -123.92)"/><path class="cls-2" d="M1828.1,217.07c2.79-4.48-10.67-16.67-15.7-13.93l-36.8,55.92Z" transform="translate(-1569.59 -123.92)"/><path class="cls-2" d="M1746.53,319.66c-.58,5.25,16.84,10.39,20.19,5.74l8.88-66.34Z" transform="translate(-1569.59 -123.92)"/><path class="cls-2" d="M1804.68,198.45c.58-5.25-16.84-10.38-20.19-5.73l-8.89,66.34Z" transform="translate(-1569.59 -123.92)"/><polygon class="cls-3" points="197.09 141.48 169.05 184.81 153.27 356.29 178.96 329.14 199.26 360.53 217.1 166.59 197.09 141.48"/><polygon class="cls-3" points="219.79 356.59 238.09 323.99 265.43 349.5 234.91 153.12 199.67 155.33 203.63 252.56 219.79 356.59"/><circle class="cls-4" cx="1775.61" cy="259.06" r="59.4" transform="translate(-334.11 1846.32) rotate(-80.78)"/><path class="cls-5" d="M1772.68,223.54,1764,241.92l-26.92,4.34,19.8,18.83c-.47,3.05-4.21,27.08-4.21,27.08l23.94-13.11,24.32,12.39s-4.44-23.9-5-26.93l19.24-19.41-27-3.54c-1.39-2.75-12.42-24.4-12.42-24.4Z" transform="translate(-1569.59 -123.92)"/></svg>